<?xml version="1.0" encoding="UTF-8"?>
<!DOCTYPE svg PUBLIC "-//W3C//DTD SVG 1.1//EN" "http://www.w3.org/Graphics/SVG/1.1/DTD/svg11.dtd">
<!-- Creator: CorelDRAW X8 -->
<svg xmlns="http://www.w3.org/2000/svg" xml:space="preserve" width="128.773mm" height="128.773mm" version="1.1" style="shape-rendering:geometricPrecision; text-rendering:geometricPrecision; image-rendering:optimizeQuality; fill-rule:evenodd; clip-rule:evenodd"
viewBox="0 0 12877 12877"
 xmlns:xlink="http://www.w3.org/1999/xlink">
 <defs>
  <style type="text/css">
   <![CDATA[
    .fil0 {fill:#2B2A29}
   ]]>
  </style>
 </defs>
 <g id="Warstwa_x0020_1">
  <metadata id="CorelCorpID_0Corel-Layer"/>
  <path class="fil0" d="M0 1559c0,295 12,554 232,799 55,61 73,94 126,151 417,451 1224,1224 1686,1685 160,161 2149,2121 2232,2245 -86,127 -3089,3101 -3352,3364 -267,267 -439,415 -679,704 -144,174 -225,386 -245,603l0 217c19,200 88,396 208,563 106,147 632,674 780,779 168,122 358,190 551,208l218 0c273,-26 540,-148 752,-358 196,-193 371,-371 566,-566l2791 -2792c140,-139 435,-468 573,-559 215,144 3418,3442 4067,4030 245,222 508,245 812,245 443,0 743,-353 975,-584 438,-439 584,-549 584,-1176 0,-299 -203,-593 -358,-749 -406,-410 -3823,-3789 -3917,-3929 86,-130 3521,-3535 3905,-3917 315,-314 370,-547 370,-963 0,-442 -353,-743 -584,-974 -427,-427 -550,-585 -1176,-585 -175,0 -314,66 -428,125 -292,152 -655,568 -886,799 -263,263 -3233,3263 -3364,3352 -130,-87 -3535,-3522 -3917,-3905 -216,-217 -487,-344 -765,-371l-221 0c-191,19 -380,87 -548,208 -154,110 -270,244 -403,377 -231,231 -585,532 -585,974z"/>
 </g>
</svg>
