<?xml version="1.0" encoding="UTF-8"?>
<!DOCTYPE svg PUBLIC "-//W3C//DTD SVG 1.1//EN" "http://www.w3.org/Graphics/SVG/1.1/DTD/svg11.dtd">
<!-- Creator: CorelDRAW X8 -->
<svg xmlns="http://www.w3.org/2000/svg" xml:space="preserve" width="77.3447mm" height="88.001mm" version="1.1" style="shape-rendering:geometricPrecision; text-rendering:geometricPrecision; image-rendering:optimizeQuality; fill-rule:evenodd; clip-rule:evenodd"
viewBox="0 0 36033 40997"
 xmlns:xlink="http://www.w3.org/1999/xlink">
 <defs>
  <style type="text/css">
   <![CDATA[
    .fil0 {fill:#19253E}
   ]]>
  </style>
 </defs>
 <g id="Warstwa_x0020_1">
  <metadata id="CorelCorpID_0Corel-Layer"/>
  <g id="_2074538805184">
   <path class="fil0" d="M7927 40997l20178 0c1524,0 3001,-1345 3297,-3110 133,-794 226,-3106 353,-3970 198,-1348 343,-4477 502,-5984l653 -7915c41,-1319 287,-2693 320,-4004 32,-1295 320,-2697 320,-4003l-31068 0c0,1577 594,6060 641,7927l653 7995c174,1647 282,4337 490,5915 224,1706 106,4380 938,5548 306,431 607,786 1095,1067 415,240 1020,534 1628,534z"/>
   <path class="fil0" d="M9609 3203l0 1601 -7447 0c-1032,0 -2162,1130 -2162,2162l0 481c0,1032 1130,2162 2162,2162l31709 0c1032,0 2162,-1130 2162,-2162l0 -481c0,-1032 -1130,-2162 -2162,-2162l-7447 0c0,-1409 149,-2580 -1037,-3767 -498,-497 -1507,-1037 -2166,-1037l-10409 0c-343,0 -959,243 -1230,372 -1080,515 -1973,1835 -1973,2831z"/>
  </g>
 </g>
</svg>
