<?xml version="1.0" encoding="UTF-8"?>
<!DOCTYPE svg PUBLIC "-//W3C//DTD SVG 1.1//EN" "http://www.w3.org/Graphics/SVG/1.1/DTD/svg11.dtd">
<!-- Creator: CorelDRAW X8 -->
<svg xmlns="http://www.w3.org/2000/svg" xml:space="preserve" width="117.68mm" height="83.6795mm" version="1.1" style="shape-rendering:geometricPrecision; text-rendering:geometricPrecision; image-rendering:optimizeQuality; fill-rule:evenodd; clip-rule:evenodd"
viewBox="0 0 9967 7087"
 xmlns:xlink="http://www.w3.org/1999/xlink">
 <defs>
  <style type="text/css">
   <![CDATA[
    .fil0 {fill:#19253F}
   ]]>
  </style>
 </defs>
 <g id="Warstwa_x0020_1">
  <metadata id="CorelCorpID_0Corel-Layer"/>
  <path class="fil0" d="M3543 5217c-85,-57 -224,-214 -307,-297 -108,-108 -203,-203 -311,-311l-1246 -1246c-351,-351 -414,-482 -920,-482 -372,0 -759,388 -759,759 0,313 35,475 277,716 430,426 2297,2344 2573,2528 384,256 949,275 1339,31 274,-171 954,-894 1208,-1148l4322 -4321c148,-147 234,-342 248,-544l0 -123c-7,-105 -34,-209 -81,-308 -19,-39 -43,-84 -72,-123l-195 -195c-175,-130 -339,-153 -548,-153 -369,0 -626,325 -822,521l-4706 4696z"/>
 </g>
</svg>
