<?xml version="1.0" encoding="UTF-8"?>
<!DOCTYPE svg PUBLIC "-//W3C//DTD SVG 1.1//EN" "http://www.w3.org/Graphics/SVG/1.1/DTD/svg11.dtd">
<!-- Creator: CorelDRAW X8 -->
<svg xmlns="http://www.w3.org/2000/svg" xml:space="preserve" width="98.2887mm" height="98.2799mm" version="1.1" style="shape-rendering:geometricPrecision; text-rendering:geometricPrecision; image-rendering:optimizeQuality; fill-rule:evenodd; clip-rule:evenodd"
viewBox="0 0 14483 14482"
 xmlns:xlink="http://www.w3.org/1999/xlink">
 <defs>
  <style type="text/css">
   <![CDATA[
    .fil0 {fill:#19253F}
   ]]>
  </style>
 </defs>
 <g id="Warstwa_x0020_1">
  <metadata id="CorelCorpID_0Corel-Layer"/>
  <g id="_2075126643008">
   <path class="fil0" d="M4190 11111c315,0 548,-37 821,-60 292,-25 546,-40 843,-71 760,-79 848,-97 1289,-538 314,-315 5333,-5369 5489,-5474l-3111 -3127c-97,143 -1845,1861 -2016,2032l-3040 3040c-1118,1119 -817,835 -977,2078 -33,259 -74,641 -86,923 -18,423 -92,489 119,826 127,203 348,371 669,371z"/>
   <path class="fil0" d="M0 3960l0 7876c0,1529 1116,2646 2646,2646l7813 0c1077,0 1943,-485 2415,-1428 138,-276 263,-633 263,-1029l0 -3970c0,-628 -893,-736 -1024,-109 -48,230 -19,3374 -16,3953 2,370 -65,563 -199,809 -201,367 -694,734 -1250,734l-8159 0c-793,0 -1450,-697 -1450,-1480l0 -8097c0,-813 680,-1485 1480,-1481l3964 -6c712,-99 551,-1033 7,-1033l-4033 0c-391,0 -747,120 -1008,252 -866,436 -1449,1236 -1449,2363z"/>
   <path class="fil0" d="M10238 1156l3080 3095c124,-85 671,-640 764,-763 110,-144 201,-287 275,-482 287,-757 60,-1505 -441,-2000 -337,-333 -604,-679 -1085,-868 -829,-326 -1546,-45 -2112,522 -135,134 -388,358 -481,496z"/>
  </g>
 </g>
</svg>
