<?xml version="1.0" encoding="UTF-8"?>
<!DOCTYPE svg PUBLIC "-//W3C//DTD SVG 1.1//EN" "http://www.w3.org/Graphics/SVG/1.1/DTD/svg11.dtd">
<!-- Creator: CorelDRAW X8 -->
<svg xmlns="http://www.w3.org/2000/svg" xml:space="preserve" width="83.8137mm" height="83.8916mm" version="1.1" style="shape-rendering:geometricPrecision; text-rendering:geometricPrecision; image-rendering:optimizeQuality; fill-rule:evenodd; clip-rule:evenodd"
viewBox="0 0 5911 5917"
 xmlns:xlink="http://www.w3.org/1999/xlink">
 <defs>
  <style type="text/css">
   <![CDATA[
    .fil0 {fill:#2B2A29}
   ]]>
  </style>
 </defs>
 <g id="Warstwa_x0020_1">
  <metadata id="CorelCorpID_0Corel-Layer"/>
  <g id="_2075110107104">
   <path class="fil0" d="M0 535l0 4852c0,253 273,530 542,530l443 0 0 -1663c0,-200 32,-384 175,-527 142,-141 326,-175 527,-175l2537 0c468,0 702,232 702,702l0 1663 431 0c287,0 554,-267 554,-554l0 -4015c0,-90 -236,-292 -305,-360l-837 -838c-194,-193 -132,-145 -631,-145l0 1491c0,322 -158,480 -480,480l-1404 0c-323,0 -481,-158 -481,-480l0 -1491 -1243 0c-252,0 -530,278 -530,530z"/>
   <path class="fil0" d="M1379 4106l0 1811 3153 0 0 -1786c0,-105 -80,-185 -185,-185l-2808 0c-71,0 -160,90 -160,160z"/>
   <polygon class="fil0" points="2167,1582 3744,1582 3744,5 2167,5 "/>
  </g>
 </g>
</svg>
